<?xml version="1.0" encoding="UTF-8" standalone="no"?>
<!-- Created with Inkscape (http://www.inkscape.org/) -->

<svg
   xmlns:dc="http://purl.org/dc/elements/1.1/"
   xmlns:cc="http://creativecommons.org/ns#"
   xmlns:rdf="http://www.w3.org/1999/02/22-rdf-syntax-ns#"
   xmlns:svg="http://www.w3.org/2000/svg"
   xmlns="http://www.w3.org/2000/svg"
   xmlns:sodipodi="http://sodipodi.sourceforge.net/DTD/sodipodi-0.dtd"
   xmlns:inkscape="http://www.inkscape.org/namespaces/inkscape"
   width="988.14203"
   height="551.85168"
   id="svg12581"
   version="1.1"
   inkscape:version="0.48.5 r10040"
   sodipodi:docname="New document 145">
  <defs
     id="defs12583" />
  <sodipodi:namedview
     id="base"
     pagecolor="#ffffff"
     bordercolor="#666666"
     borderopacity="1.0"
     inkscape:pageopacity="0.0"
     inkscape:pageshadow="2"
     inkscape:zoom="0.35"
     inkscape:cx="511.89834"
     inkscape:cy="212.20888"
     inkscape:document-units="px"
     inkscape:current-layer="layer1"
     showgrid="false"
     fit-margin-top="0"
     fit-margin-left="0"
     fit-margin-right="0"
     fit-margin-bottom="0"
     inkscape:window-width="1598"
     inkscape:window-height="882"
     inkscape:window-x="0"
     inkscape:window-y="16"
     inkscape:window-maximized="0" />
  <metadata
     id="metadata12586">
    <rdf:RDF>
      <cc:Work
         rdf:about="">
        <dc:format>image/svg+xml</dc:format>
        <dc:type
           rdf:resource="http://purl.org/dc/dcmitype/StillImage" />
        <dc:title></dc:title>
      </cc:Work>
    </rdf:RDF>
  </metadata>
  <g
     inkscape:label="Layer 1"
     inkscape:groupmode="layer"
     id="layer1"
     transform="translate(136.89834,-192.71936)">
    <g
       style="fill:#999999;fill-opacity:1"
       transform="matrix(1.25,0,0,-1.25,-479.20496,979.61936)"
       id="g12218">
      <g
         style="fill:#999999;fill-opacity:1"
         id="g12220">
        <g
           style="fill:#999999;fill-opacity:1"
           id="g12222">
          <g
             style="fill:#999999;fill-opacity:1"
             id="g12224">
            <path
               inkscape:connector-curvature="0"
               id="path12226"
               style="fill:#999999;fill-opacity:1;stroke:none"
               d="m 278.369,453.52 c 20.23,-76 40.623,-153 40.623,-153 l 0,0 0.071,0 c 2.455,-15 15.906,-27 32.005,-27 l 0,0 94.85,0 c 10.556,0 19.974,5.016 25.901,12.807 l 0,0 c -3.311,-1.864 -7.131,-2.932 -11.201,-2.932 l 0,0 c -12.276,0 -19.625,8.719 -22.848,21.9 l 0,0 c -1.572,6.426 -20.608,77.225 -39.71,148.225 l 0,0 -119.691,0 z" />
          </g>
        </g>
      </g>
    </g>
    <g
       style="fill:#999999;fill-opacity:1"
       transform="matrix(1.25,0,0,-1.25,-479.20496,979.61936)"
       id="g12228">
      <g
         style="fill:#999999;fill-opacity:1"
         id="g12230">
        <g
           style="fill:#999999;fill-opacity:1"
           id="g12232">
          <g
             style="fill:#999999;fill-opacity:1"
             id="g12234">
            <path
               inkscape:connector-curvature="0"
               id="path12236"
               style="fill:#999999;fill-opacity:1;stroke:none"
               d="m 470.894,629.52 c -10.556,0 -19.974,-5.015 -25.902,-12.807 l 0,0 c 3.312,1.864 7.131,2.932 11.202,2.932 l 0,0 c 12.275,0 17.299,-5.625 22.848,-21.807 l 0,0 c 5.549,-16.182 79.951,-297.318 79.951,-297.318 l 0,0 0.07,0 c 2.455,-15 15.906,-27 32.006,-27 l 0,0 94.848,0 c 10.557,0 19.975,5.016 25.902,12.807 l 0,0 c -3.311,-1.864 -7.131,-2.932 -11.201,-2.932 l 0,0 c -12.276,0 -19.625,8.625 -22.848,21.807 l 0,0 c -3.223,13.182 -79.951,297.318 -79.951,297.318 l 0,0 -0.071,0 c -2.454,15.436 -15.906,27 -32.004,27 l 0,0 -94.85,0 z" />
          </g>
        </g>
      </g>
    </g>
    <g
       style="fill:#cccccc;fill-opacity:1"
       transform="matrix(1.25,0,0,-1.25,-479.45496,979.61936)"
       id="g12238">
      <g
         style="fill:#cccccc;fill-opacity:1"
         id="g12240">
        <g
           style="fill:#cccccc;fill-opacity:1"
           id="g12242">
          <g
             style="fill:#cccccc;fill-opacity:1"
             id="g12244">
            <path
               inkscape:connector-curvature="0"
               id="path12246"
               style="fill:#cccccc;fill-opacity:1;stroke:none"
               d="m 471.068,629.52 c -16.098,0 -29.551,-11.564 -32.005,-27 l 0,0 -0.07,0 c 0,0 -76.729,-284.136 -79.951,-297.318 l 0,0 c -3.223,-13.182 -10.573,-21.807 -22.848,-21.807 l 0,0 c -4.071,0 -7.89,1.068 -11.201,2.932 l 0,0 c 5.927,-7.791 15.345,-12.807 25.902,-12.807 l 0,0 94.848,0 c 16.099,0 29.551,11.564 32.006,27 l 0,0 0.07,0 c 0,0 74.402,281.136 79.951,297.318 l 0,0 c 5.549,16.182 10.573,21.807 22.848,21.807 l 0,0 c 4.071,0 7.889,-1.068 11.2,-2.932 l 0,0 c -5.926,7.792 -15.345,12.807 -25.901,12.807 l 0,0 -94.849,0 z" />
          </g>
        </g>
      </g>
    </g>
    <g
       style="fill:#999999;fill-opacity:1"
       transform="matrix(1.25,0,0,-1.25,-479.20496,979.61936)"
       id="g12248">
      <g
         style="fill:#999999;fill-opacity:1"
         id="g12250">
        <g
           style="fill:#999999;fill-opacity:1"
           id="g12252">
          <g
             style="fill:#999999;fill-opacity:1"
             id="g12254">
            <path
               inkscape:connector-curvature="0"
               id="path12256"
               style="fill:#999999;fill-opacity:1;stroke:none"
               d="m 710.895,629.52 c -10.557,0 -19.975,-5.015 -25.902,-12.807 l 0,0 c 3.311,1.864 7.13,2.932 11.201,2.932 l 0,0 c 12.275,0 17.299,-5.625 22.848,-21.807 l 0,0 c 5.549,-16.182 79.951,-297.318 79.951,-297.318 l 0,0 0.07,0 c 2.455,-15 15.907,-27 32.005,-27 l 0,0 94.849,0 c 10.556,0 19.975,5.016 25.901,12.807 l 0,0 c -3.311,-1.864 -7.129,-2.932 -11.2,-2.932 l 0,0 c -12.275,0 -19.626,8.625 -22.848,21.807 l 0,0 c -3.223,13.182 -79.951,297.318 -79.951,297.318 l 0,0 -0.07,0 c -2.455,15.436 -15.907,27 -32.006,27 l 0,0 -94.848,0 z" />
          </g>
        </g>
      </g>
    </g>
    <g
       style="fill:#cccccc;fill-opacity:1"
       transform="matrix(1.25,0,0,-1.25,-480.205,979.61936)"
       id="g12258">
      <g
         style="fill:#cccccc;fill-opacity:1"
         id="g12260">
        <g
           style="fill:#cccccc;fill-opacity:1"
           id="g12262">
          <g
             style="fill:#cccccc;fill-opacity:1"
             id="g12264">
            <path
               inkscape:connector-curvature="0"
               id="path12266"
               style="fill:#cccccc;fill-opacity:1;stroke:none"
               d="m 712.068,629.52 c -16.099,0 -29.55,-11.564 -32.005,-27 l 0,0 -0.07,0 c 0,0 -76.728,-284.136 -79.951,-297.318 l 0,0 c -3.223,-13.182 -10.573,-21.807 -22.849,-21.807 l 0,0 c -4.069,0 -7.889,1.068 -11.2,2.932 l 0,0 c 5.926,-7.791 15.345,-12.807 25.901,-12.807 l 0,0 94.849,0 c 16.099,0 29.551,11.564 32.006,27 l 0,0 0.07,0 c 0,0 74.402,281.136 79.951,297.318 l 0,0 c 5.549,16.182 10.573,21.807 22.848,21.807 l 0,0 c 4.071,0 7.89,-1.068 11.201,-2.932 l 0,0 c -5.927,7.792 -15.345,12.807 -25.902,12.807 l 0,0 -94.849,0 z" />
          </g>
        </g>
      </g>
    </g>
    <g
       style="fill:#cccccc;fill-opacity:1"
       transform="matrix(1.25,0,0,-1.25,-478.95496,979.61936)"
       id="g12268">
      <g
         style="fill:#cccccc;fill-opacity:1"
         id="g12270">
        <g
           style="fill:#cccccc;fill-opacity:1"
           id="g12272">
          <g
             style="fill:#cccccc;fill-opacity:1"
             id="g12274">
            <path
               inkscape:connector-curvature="0"
               id="path12276"
               style="fill:#cccccc;fill-opacity:1;stroke:none"
               d="m 926.745,561.069 c -13.876,-4.458 -24.346,-15.626 -27.961,-30.105 l 0,0 C 892.321,505.079 840.613,311.721 839.042,305.295 l 0,0 c -3.223,-13.181 -10.573,-21.854 -22.848,-21.854 l 0,0 c -4.071,0 -7.89,1.045 -11.202,2.909 l 0,0 c 5.928,-7.791 15.346,-12.83 25.902,-12.83 l 0,0 94.85,0 c 16.098,0 29.55,11.564 32.004,27 l 0,0 0.071,0 c 0,0 48.286,188.556 52.799,206.661 l 0,0 c 0.962,-0.402 1.452,-0.741 1.922,-1.002 l 0,0 c 9.533,-5.29 20.401,-4.806 31.926,2.226 l 0,0 c 11.943,7.289 18.574,17.478 19.604,29.811 l 0,0 c 0.985,11.812 -6.302,21.632 -17.42,23.915 l 0,0 c -11.833,2.43 -25.784,-3.041 -34.926,-13.573 l 0,0 c -4.734,-5.454 -7.452,-11.391 -9.022,-17.698 l 0,0 c -6.418,-25.781 -12.861,-51.561 -19.245,-77.34 l 0,0 -89.569,0 c 4.315,17.126 8.571,34.253 12.847,51.379 l 0,0 c 0.158,0.634 0.398,1.267 0.666,2.111 l 0,0 c 0.57,-0.355 0.919,-0.579 1.278,-0.793 l 0,0 c 18.601,-11.136 46.741,5.466 51.101,28.261 l 0,0 c 3.104,16.234 -7.646,28.247 -22.916,28.248 l 0,0 c -3.203,0 -6.604,-0.528 -10.119,-1.657" />
          </g>
        </g>
      </g>
    </g>
    <g
       transform="matrix(1.25,0,0,-1.25,-492.6012,952.38996)"
       id="g12504">
      <g
         id="g12492">
        <path
           inkscape:connector-curvature="0"
           style="fill:#e6e6e6"
           d="m 294.86571,168.2609 c 1.20505,1.20444 1.43855,3.661 1.63046,17.15419 l 0.0853,6 3.34746,-11.98228 c 3.08902,-11.0572 3.5173,-12.04188 5.54745,-12.75443 1.41379,-0.49621 2.98622,-0.49621 4.4,0 2.03016,0.71255 2.45844,1.69723 5.54746,12.75443 l 3.34746,11.98228 0.0853,-6 c 0.24585,-17.28583 0.4112,-17.87829 5.26035,-18.84812 1.75014,-0.35003 2.96404,-0.043 4.38929,1.10999 1.963,1.58808 1.97099,1.65363 2.21692,18.18726 0.26568,17.86143 -0.12819,20.29324 -3.53853,21.84709 -3.08405,1.40519 -9.46244,1.12778 -11.40964,-0.49622 -1.18452,-0.98792 -2.58652,-4.7929 -4.76305,-12.9268 -1.69644,-6.33973 -3.2793,-11.19973 -3.51747,-10.8 -0.23816,0.39974 -1.74353,5.5868 -3.34525,11.5268 -2.01423,7.4698 -3.42685,11.23169 -4.58118,12.2 -1.93638,1.62433 -8.3147,1.90197 -11.39998,0.49622 -3.41033,-1.55385 -3.80421,-3.98566 -3.53853,-21.84709 0.24593,-16.53363 0.25392,-16.59918 2.21692,-18.18726 2.20759,-1.78595 5.91843,-1.51574 8.01918,0.58394 z"
           id="path3549" />
        <path
           inkscape:connector-curvature="0"
           style="fill:#e6e6e6"
           d="m 394.23705,167.10238 c 5.75485,1.20447 9.15046,3.43585 11.25081,7.39332 1.54676,2.91441 1.79663,4.81494 2.04803,15.5777 0.31229,13.36937 -0.24371,16.13093 -3.55118,17.63791 -3.03505,1.38286 -4.99227,1.09253 -7.14465,-1.05986 -1.89644,-1.89644 -1.96364,-2.34407 -1.96364,-13.08062 0,-12.27605 -0.70152,-15.48954 -3.67746,-16.84547 -4.16408,-1.89729 -8.58139,-0.41361 -9.88271,3.31937 -0.4619,1.32501 -0.83982,7.31529 -0.83982,13.31173 0,8.31989 -0.27985,11.30215 -1.18134,12.58921 -2.5965,3.70703 -9.06391,2.90576 -10.82294,-1.3409 -1.5339,-3.70317 -0.74855,-26.04531 1.04264,-29.66174 1.84127,-3.71753 5.09862,-6.07496 10.34601,-7.48769 5.22317,-1.40621 8.9113,-1.49676 14.37625,-0.35296 z"
           id="path3547" />
        <path
           inkscape:connector-curvature="0"
           style="fill:#e6e6e6"
           d="m 471.57584,168.56378 c 8.6975,4.43712 9.77027,16.26343 1.87161,20.63274 -1.63407,0.90391 -6.14317,2.6012 -10.02023,3.77175 -6.75258,2.03871 -7.03872,2.21914 -6.8,4.28754 0.21951,1.90198 0.63549,2.18767 3.49104,2.39755 2.61861,0.19246 3.83169,-0.23048 6.31,-2.2 3.73158,-2.96548 6.27281,-3.08635 8.93421,-0.42495 2.26212,2.26212 2.06526,4.34597 -0.69564,7.36346 -2.39479,2.61737 -6.55168,3.71468 -14.19041,3.74592 -7.59556,0.031 -10.41612,-1.0094 -13.87287,-5.11752 -3.96701,-4.71453 -3.48467,-11.6475 1.07741,-15.48624 1.26376,-1.06338 4.92973,-2.71417 8.1466,-3.66842 3.21688,-0.95426 6.74886,-2.01376 7.84886,-2.35446 3.0221,-0.93602 3.22423,-4.6223 0.31412,-5.72871 -3.10421,-1.18023 -6.19662,-0.27323 -10.05268,2.94841 -2.61037,2.18091 -3.78672,2.67844 -5.39947,2.28368 -6.06256,-1.484 -5.60245,-8.72065 0.76378,-12.01275 5.99953,-3.10248 16.64069,-3.31173 22.27367,-0.438 z"
           id="path3545" />
        <path
           inkscape:connector-curvature="0"
           style="fill:#e6e6e6"
           d="m 527.31282,168.17873 c 1.9636,1.96358 1.9636,1.96408 1.9636,19.23636 0,17.27228 0,17.27278 -1.9636,19.23636 -3.0331,3.03307 -7.7566,2.39877 -9.66844,-1.29832 -1.70536,-3.2978 -1.68808,-32.61169 0.0212,-35.91702 1.88432,-3.64386 6.64084,-4.26381 9.64724,-1.25738 z"
           id="path3543" />
        <path
           inkscape:connector-curvature="0"
           style="fill:#e6e6e6"
           d="m 592.81392,167.35624 c 9.1925,2.76654 13.7052,9.61611 9.2625,14.05885 -2.6743,2.67435 -6.135,2.09211 -9.5099,-1.6 -2.5109,-2.74683 -3.3941,-3.2 -6.2365,-3.2 -2.6737,0 -3.6882,0.44786 -5.2684,2.32576 -2.4295,2.8873 -3.2997,7.91985 -2.1311,12.32406 1.2803,4.82489 3.5363,6.95018 7.3778,6.95018 2.6576,0 3.6125,-0.50274 6.078,-3.2 3.3892,-3.70772 6.9881,-4.30196 9.6901,-1.6 5.0941,5.09408 -2.6321,13.87902 -13.1621,14.96581 -10.2333,1.05617 -19.7116,-5.06931 -22.457,-14.5132 -5.0228,-17.27761 9.2695,-31.6539 26.3566,-26.51146 z"
           id="path3541" />
        <path
           inkscape:connector-curvature="0"
           style="fill:#e6e6e6"
           d="m 697.77092,207.8054 c -5.586,-0.0522 -6.4338,-0.3627 -8.25,-1.925 l -2.25,-1.925 0,-17.35 c 0,-17.25806 0.02,-17.32791 1.9,-18.85 2.6292,-2.12907 6.1662,-1.95879 8.55,0.425 1.643,1.64305 1.95,2.73307 1.95,6.7 l 0,4.75 7.4,0.35 c 11.4385,0.53689 15.7511,3.45254 17.05,11.575 1.1992,7.49979 -3.188,13.73715 -10.825,15.375 -2.2564,0.4839 -8.0312,0.875 -12.825,0.875 -1.0076,0 -1.902,0.007 -2.7,0 z m 1.9,-9.6 4.225,0 c 4.8712,0 7.775,-1.5936 7.775,-4.3 0,-3.03887 -2.3862,-4.5 -7.45,-4.5 l -4.55,0 0,4.4 0,4.4 z"
           id="path3539" />
        <path
           inkscape:connector-curvature="0"
           style="fill:#e6e6e6"
           d="m 791.10222,168.09074 c 3.7239,1.55596 7.5776,5.68763 8.5413,9.15741 0.4532,1.63182 0.826,8.13139 0.8284,14.4435 0,9.29979 -0.2494,11.90645 -1.3343,13.743 -2.1752,3.68232 -6.4805,4.2339 -9.4976,1.2168 -1.8964,-1.89644 -1.9636,-2.34407 -1.9636,-13.08062 0,-12.27605 -0.7015,-15.48954 -3.6775,-16.84547 -4.164,-1.89729 -8.5813,-0.41361 -9.8827,3.31937 -0.4619,1.32501 -0.8398,7.41176 -0.8398,13.5261 0,10.73655 -0.067,11.18418 -1.9636,13.08062 -3.0511,3.05108 -8.1681,2.14466 -9.9482,-1.76222 -1.1587,-2.54321 -1.1535,-22.88423 0.01,-27.07414 1.6767,-6.05342 5.4932,-9.32925 12.7048,-10.90498 3.8524,-0.84176 13.8437,-0.14893 17.0258,1.18063 z"
           id="path3535" />
        <path
           inkscape:connector-curvature="0"
           style="fill:#e6e6e6"
           d="m 858.51282,168.17873 c 1.9312,1.93125 1.9636,2.18855 1.9636,15.6 l 0,13.63636 5.337,0 c 6.2899,0 8.263,1.26047 8.263,5.27863 0,4.75453 -1.4193,5.12137 -19.8144,5.12137 l -16.2583,0 -2.0403,-2.04026 c -1.5821,-1.58213 -1.9234,-2.52522 -1.5198,-4.2 0.7796,-3.23551 2.5983,-4.15974 8.1857,-4.15974 l 5.0471,0 0,-12.76236 c 0,-7.67561 0.3552,-13.54202 0.8913,-14.71847 1.779,-3.90446 6.8933,-4.80727 9.9451,-1.75553 z"
           id="path3533" />
        <path
           inkscape:connector-curvature="0"
           style="fill:#e6e6e6"
           d="m 928.58782,167.74228 c 1.8219,1.47324 1.9027,2.0173 2.2886,15.40001 l 0.4,13.8728 5.1845,0.24296 c 6.0847,0.28516 8.0155,1.59451 8.0155,5.43567 0,4.75453 -1.4193,5.12137 -19.8144,5.12137 l -16.2583,0 -2.0403,-2.04026 c -1.5821,-1.58213 -1.9234,-2.52522 -1.5198,-4.2 0.7796,-3.23551 2.5983,-4.15974 8.1857,-4.15974 l 5.0471,0 0,-12.8526 c 0,-12.93372 0.4165,-15.23807 3.1307,-17.32196 1.8916,-1.45237 5.2461,-1.22433 7.3807,0.50175 z"
           id="path3531" />
        <path
           inkscape:connector-curvature="0"
           style="fill:#e6e6e6"
           d="m 997.71282,168.17873 c 1.7063,1.70637 1.9636,2.68869 1.9636,7.49778 0,5.28088 0.1999,5.8673 4.36768,12.81366 7.9266,13.21089 8.5095,15.4895 4.7244,18.46685 -4.5163,3.55255 -7.8792,1.63014 -12.21188,-6.98098 l -3.0793,-6.11989 -2.9207,5.79973 c -3.5261,7.00189 -5.3533,8.95921 -8.3634,8.95921 -2.8237,0 -6.5168,-3.26019 -6.5168,-5.75293 0,-1.00613 2.52,-6.20658 5.6,-11.55655 5.2723,-9.15803 5.6,-10.01521 5.6,-14.6486 0,-4.9226 1.4343,-9.12235 3.3832,-9.90649 2.5301,-1.01799 5.5941,-0.43086 7.4532,1.42821 z"
           id="path3527" />
      </g>
    </g>
  </g>
</svg>
