<?xml version="1.0" encoding="UTF-8" standalone="no"?>
<!-- Created with Inkscape (http://www.inkscape.org/) -->

<svg
   xmlns:dc="http://purl.org/dc/elements/1.1/"
   xmlns:cc="http://creativecommons.org/ns#"
   xmlns:rdf="http://www.w3.org/1999/02/22-rdf-syntax-ns#"
   xmlns:svg="http://www.w3.org/2000/svg"
   xmlns="http://www.w3.org/2000/svg"
   xmlns:sodipodi="http://sodipodi.sourceforge.net/DTD/sodipodi-0.dtd"
   xmlns:inkscape="http://www.inkscape.org/namespaces/inkscape"
   width="982.48743"
   height="445"
   id="svg12581"
   version="1.1"
   inkscape:version="0.48.5 r10040"
   sodipodi:docname="logo-flat-green.svg">
  <defs
     id="defs12583" />
  <sodipodi:namedview
     id="base"
     pagecolor="#ffffff"
     bordercolor="#666666"
     borderopacity="1.0"
     inkscape:pageopacity="0.0"
     inkscape:pageshadow="2"
     inkscape:zoom="0.35"
     inkscape:cx="-371.14367"
     inkscape:cy="108.99454"
     inkscape:document-units="px"
     inkscape:current-layer="g12549"
     showgrid="false"
     fit-margin-top="0"
     fit-margin-left="0"
     fit-margin-right="0"
     fit-margin-bottom="0"
     inkscape:window-width="1598"
     inkscape:window-height="882"
     inkscape:window-x="0"
     inkscape:window-y="16"
     inkscape:window-maximized="0" />
  <metadata
     id="metadata12586">
    <rdf:RDF>
      <cc:Work
         rdf:about="">
        <dc:format>image/svg+xml</dc:format>
        <dc:type
           rdf:resource="http://purl.org/dc/dcmitype/StillImage" />
        <dc:title></dc:title>
      </cc:Work>
    </rdf:RDF>
  </metadata>
  <g
     inkscape:label="Layer 1"
     inkscape:groupmode="layer"
     id="layer1"
     transform="translate(130.99919,-196.35672)">
    <g
       transform="matrix(1.25,0,0,-1.25,-478.96044,982.1756)"
       id="g12549">
      <g
         style="fill:#25515d;fill-opacity:1"
         transform="translate(0,-0.86489258)"
         id="g3293">
        <g
           style="fill:#25515d;fill-opacity:1"
           id="g3295">
          <g
             style="fill:#25515d;fill-opacity:1"
             id="g3301">
            <g
               style="fill:#25515d;fill-opacity:1"
               id="g3303">
              <path
                 inkscape:connector-curvature="0"
                 id="path3311"
                 style="fill:#25515d;fill-opacity:1;stroke:none"
                 d="m 278.369,453.52 c 20.23,-76 40.623,-153 40.623,-153 l 0,0 0.071,0 c 2.455,-15 15.906,-27 32.005,-27 l 0,0 94.85,0 c 10.556,0 19.974,5.016 25.901,12.807 l 0,0 c -3.311,-1.864 -7.131,-2.932 -11.201,-2.932 l 0,0 c -12.276,0 -19.625,8.719 -22.848,21.9 l 0,0 c -1.572,6.426 -20.608,77.225 -39.71,148.225 l 0,0 -119.691,0 z" />
            </g>
          </g>
        </g>
      </g>
      <g
         style="fill:#25515d;fill-opacity:1"
         transform="translate(0,-0.86489258)"
         id="g3333">
        <g
           style="fill:#25515d;fill-opacity:1"
           id="g3335">
          <g
             style="fill:#25515d;fill-opacity:1"
             id="g3341">
            <g
               style="fill:#25515d;fill-opacity:1"
               id="g3343">
              <path
                 inkscape:connector-curvature="0"
                 id="path3351"
                 style="fill:#25515d;fill-opacity:1;stroke:none"
                 d="m 470.894,629.52 c -10.556,0 -19.974,-5.015 -25.902,-12.807 l 0,0 c 3.312,1.864 7.131,2.932 11.202,2.932 l 0,0 c 12.275,0 17.299,-5.625 22.848,-21.807 l 0,0 c 5.549,-16.182 79.951,-297.318 79.951,-297.318 l 0,0 0.07,0 c 2.455,-15 15.906,-27 32.006,-27 l 0,0 94.848,0 c 10.557,0 19.975,5.016 25.902,12.807 l 0,0 c -3.311,-1.864 -7.131,-2.932 -11.201,-2.932 l 0,0 c -12.276,0 -19.625,8.625 -22.848,21.807 l 0,0 c -3.223,13.182 -79.951,297.318 -79.951,297.318 l 0,0 -0.071,0 c -2.454,15.436 -15.906,27 -32.004,27 l 0,0 -94.85,0 z" />
            </g>
          </g>
        </g>
      </g>
      <g
         style="fill:#347385;fill-opacity:1"
         transform="translate(-0.2,-0.86489258)"
         id="g3313">
        <g
           style="fill:#347385;fill-opacity:1"
           id="g3315">
          <g
             style="fill:#347385;fill-opacity:1"
             id="g3321">
            <g
               style="fill:#347385;fill-opacity:1"
               id="g3323">
              <path
                 inkscape:connector-curvature="0"
                 id="path3331"
                 style="fill:#347385;fill-opacity:1;stroke:none"
                 d="m 471.068,629.52 c -16.098,0 -29.551,-11.564 -32.005,-27 l 0,0 -0.07,0 c 0,0 -76.729,-284.136 -79.951,-297.318 l 0,0 c -3.223,-13.182 -10.573,-21.807 -22.848,-21.807 l 0,0 c -4.071,0 -7.89,1.068 -11.201,2.932 l 0,0 c 5.927,-7.791 15.345,-12.807 25.902,-12.807 l 0,0 94.848,0 c 16.099,0 29.551,11.564 32.006,27 l 0,0 0.07,0 c 0,0 74.402,281.136 79.951,297.318 l 0,0 c 5.549,16.182 10.573,21.807 22.848,21.807 l 0,0 c 4.071,0 7.889,-1.068 11.2,-2.932 l 0,0 c -5.926,7.792 -15.345,12.807 -25.901,12.807 l 0,0 -94.849,0 z" />
            </g>
          </g>
        </g>
      </g>
      <g
         style="fill:#25515d;fill-opacity:1"
         transform="translate(0,-0.86489258)"
         id="g3373">
        <g
           style="fill:#25515d;fill-opacity:1"
           id="g3375">
          <g
             style="fill:#25515d;fill-opacity:1"
             id="g3381">
            <g
               style="fill:#25515d;fill-opacity:1"
               id="g3383">
              <path
                 inkscape:connector-curvature="0"
                 id="path3391"
                 style="fill:#25515d;fill-opacity:1;stroke:none"
                 d="m 710.895,629.52 c -10.557,0 -19.975,-5.015 -25.902,-12.807 l 0,0 c 3.311,1.864 7.13,2.932 11.201,2.932 l 0,0 c 12.275,0 17.299,-5.625 22.848,-21.807 l 0,0 c 5.549,-16.182 79.951,-297.318 79.951,-297.318 l 0,0 0.07,0 c 2.455,-15 15.907,-27 32.005,-27 l 0,0 94.849,0 c 10.556,0 19.975,5.016 25.901,12.807 l 0,0 c -3.311,-1.864 -7.129,-2.932 -11.2,-2.932 l 0,0 c -12.275,0 -19.626,8.625 -22.848,21.807 l 0,0 c -3.223,13.182 -79.951,297.318 -79.951,297.318 l 0,0 -0.07,0 c -2.455,15.436 -15.907,27 -32.006,27 l 0,0 -94.848,0 z" />
            </g>
          </g>
        </g>
      </g>
      <g
         style="fill:#347385;fill-opacity:1"
         transform="translate(-0.8,-0.86489258)"
         id="g3353">
        <g
           style="fill:#347385;fill-opacity:1"
           id="g3355">
          <g
             style="fill:#347385;fill-opacity:1"
             id="g3361">
            <g
               style="fill:#347385;fill-opacity:1"
               id="g3363">
              <path
                 inkscape:connector-curvature="0"
                 id="path3371"
                 style="fill:#347385;fill-opacity:1;stroke:none"
                 d="m 712.068,629.52 c -16.099,0 -29.55,-11.564 -32.005,-27 l 0,0 -0.07,0 c 0,0 -76.728,-284.136 -79.951,-297.318 l 0,0 c -3.223,-13.182 -10.573,-21.807 -22.849,-21.807 l 0,0 c -4.069,0 -7.889,1.068 -11.2,2.932 l 0,0 c 5.926,-7.791 15.345,-12.807 25.901,-12.807 l 0,0 94.849,0 c 16.099,0 29.551,11.564 32.006,27 l 0,0 0.07,0 c 0,0 74.402,281.136 79.951,297.318 l 0,0 c 5.549,16.182 10.573,21.807 22.848,21.807 l 0,0 c 4.071,0 7.89,-1.068 11.201,-2.932 l 0,0 c -5.927,7.792 -15.345,12.807 -25.902,12.807 l 0,0 -94.849,0 z" />
            </g>
          </g>
        </g>
      </g>
      <g
         style="fill:#347385;fill-opacity:1"
         transform="translate(0.2,-0.86489258)"
         id="g3393">
        <g
           style="fill:#347385;fill-opacity:1"
           id="g3395">
          <g
             style="fill:#347385;fill-opacity:1"
             id="g3401">
            <g
               style="fill:#347385;fill-opacity:1"
               id="g3403">
              <path
                 inkscape:connector-curvature="0"
                 id="path3411"
                 style="fill:#347385;fill-opacity:1;stroke:none"
                 d="m 926.745,561.069 c -13.876,-4.458 -24.346,-15.626 -27.961,-30.105 l 0,0 C 892.321,505.079 840.613,311.721 839.042,305.295 l 0,0 c -3.223,-13.181 -10.573,-21.854 -22.848,-21.854 l 0,0 c -4.071,0 -7.89,1.045 -11.202,2.909 l 0,0 c 5.928,-7.791 15.346,-12.83 25.902,-12.83 l 0,0 94.85,0 c 16.098,0 29.55,11.564 32.004,27 l 0,0 0.071,0 c 0,0 48.286,188.556 52.799,206.661 l 0,0 c 0.962,-0.402 1.452,-0.741 1.922,-1.002 l 0,0 c 9.533,-5.29 20.401,-4.806 31.926,2.226 l 0,0 c 11.943,7.289 18.574,17.478 19.604,29.811 l 0,0 c 0.985,11.812 -6.302,21.632 -17.42,23.915 l 0,0 c -11.833,2.43 -25.784,-3.041 -34.926,-13.573 l 0,0 c -4.734,-5.454 -7.452,-11.391 -9.022,-17.698 l 0,0 c -6.418,-25.781 -12.861,-51.561 -19.245,-77.34 l 0,0 -89.569,0 c 4.315,17.126 8.571,34.253 12.847,51.379 l 0,0 c 0.158,0.634 0.398,1.267 0.666,2.111 l 0,0 c 0.57,-0.355 0.919,-0.579 1.278,-0.793 l 0,0 c 18.601,-11.136 46.741,5.466 51.101,28.261 l 0,0 c 3.104,16.234 -7.646,28.247 -22.916,28.248 l 0,0 c -3.203,0 -6.604,-0.528 -10.119,-1.657" />
            </g>
          </g>
        </g>
      </g>
    </g>
  </g>
</svg>
